<svg width="31" height="241" viewBox="0 0 31 241" fill="none" xmlns="http://www.w3.org/2000/svg">
<path d="M31 0.5C31 0.223858 30.7761 0 30.5 0H10C7.23858 0 5.00001 2.23857 5.00001 5L5 184.5C5 184.776 5.22386 185 5.5 185V185C5.77614 185 6 184.776 6 184.5L6.00001 6C6.00001 3.23857 8.23858 0.999998 11 0.999998L30.5 1C30.7761 1 31 0.776142 31 0.5V0.5Z" fill="#9D9D9C"/>
<line x1="5" y1="184.5" x2="17" y2="184.5" stroke="#9D9D9C"/>
<line x1="5.5" y1="185" x2="5.5" y2="205" stroke="#9D9D9C"/>
<line x1="5.5" y1="213" x2="5.5" y2="224" stroke="#9D9D9C"/>
<line y1="218.5" x2="11" y2="218.5" stroke="#9D9D9C"/>
<path d="M5.5 229C5.22386 229 5 229.224 5 229.5V236C5 238.761 7.23858 241 10 241H15.5C15.7761 241 16 240.776 16 240.5V240.5C16 240.224 15.7761 240 15.5 240H11C8.23858 240 6 237.761 6 235V229.5C6 229.224 5.77614 229 5.5 229V229Z" fill="#9D9D9C"/>
</svg>
